<svg width="37" height="37" viewBox="0 0 37 37" fill="none" xmlns="http://www.w3.org/2000/svg">
<circle cx="18.3549" cy="17.6068" r="4.57509" stroke="#727272" stroke-width="1.4"/>
<path d="M20.5703 13.0806C20.262 12.7686 17.8725 12.9506 16.7164 13.0806C16.7164 11.9886 14.0186 7.9454 12.6697 6.06033C11.5906 4.18826 13.1194 2.81021 14.0186 2.3552C19.7224 -0.764912 22.5615 2.2252 23.268 4.11026C24.8096 10.3505 20.9557 13.4706 20.5703 13.0806Z" stroke="#727272" stroke-width="1.4"/>
<path d="M23.666 17.9539C23.8269 17.5458 22.6949 15.4337 22.1089 14.4286C23.1078 13.9874 25.7162 9.88602 26.8956 7.8905C28.172 6.14701 30.0503 6.98861 30.8298 7.62734C35.9885 11.5842 34.4004 15.3893 32.9615 16.7973C27.8762 20.7287 23.465 18.464 23.666 17.9539Z" stroke="#727272" stroke-width="1.4"/>
<path d="M21.6171 22.1186C22.0535 22.0743 23.4109 20.0995 24.0351 19.1176C24.8855 19.8028 29.7264 20.2388 32.0406 20.3712C34.1754 20.7055 34.2893 22.7605 34.0794 23.7462C32.9304 30.1452 28.8207 30.4799 26.9096 29.8474C21.0832 27.1326 21.0716 22.174 21.6171 22.1186Z" stroke="#727272" stroke-width="1.4"/>
<path d="M16.2109 23.4236C16.5087 23.7457 18.9029 23.643 20.0627 23.5514C20.0265 24.6429 22.5887 28.7733 23.8743 30.7021C24.8907 32.6089 23.3171 33.9355 22.4033 34.3604C16.5991 37.2896 13.8608 34.207 13.2171 32.2995C11.8834 26.0116 15.8387 23.021 16.2109 23.4236Z" stroke="#727272" stroke-width="1.4"/>
<path d="M12.2189 18.71C12.1099 19.1349 13.4951 21.0903 14.2013 22.015C13.2648 22.5767 11.1852 26.9699 10.2624 29.0963C9.21206 30.9846 7.24396 30.3825 6.39121 29.8453C0.781608 26.5589 1.88548 22.5861 3.13862 21.0106C7.69707 16.4788 12.3551 18.1789 12.2189 18.71Z" stroke="#727272" stroke-width="1.4"/>
<path d="M14.4828 15.0661C14.0444 15.0801 12.5534 16.9561 11.8627 17.8924C11.0619 17.15 6.26275 16.3796 3.96329 16.0872C1.85679 15.6058 1.88552 13.5478 2.1632 12.579C3.75286 6.27495 7.87579 6.22579 9.73855 6.98922C15.3628 10.1012 15.0308 15.0487 14.4828 15.0661Z" stroke="#727272" stroke-width="1.4"/>
</svg>
